<?xml version="1.0" encoding="utf-8"?>
<!-- Generator: Adobe Illustrator 18.1.1, SVG Export Plug-In . SVG Version: 6.00 Build 0)  -->
<svg version="1.1" id="Layer_1" xmlns="http://www.w3.org/2000/svg" xmlns:xlink="http://www.w3.org/1999/xlink" x="0px" y="0px"
	 viewBox="0 0 2560 1440" enable-background="new 0 0 2560 1440" xml:space="preserve">


	<rect x="0" y="60" width="1" height="1" fill="#ffffff">
		<animateMotion path="M 0 0 V 2600 Z" dur="9s" repeatCount="indefinite" />
	</rect>

	<rect x="16" y="20" width="1" height="1" fill="#ffffff">
		<animateMotion path="M 0 0 V 200 Z" dur="9s" repeatCount="indefinite" />
	</rect>

	<rect x="96" y="280" width="1" height="1" fill="#ffffff">
		<animateMotion path="M 0 0 V 1000 Z" dur="9s" repeatCount="indefinite" />
	</rect>
	

	<rect x="124" y="100" width="1" height="1" fill="#ffffff">
		<animateMotion path="M 0 0 V 900 Z" dur="9s" repeatCount="indefinite" />
	</rect>
	<rect x="180" y="900" width="1" height="1" fill="#ffffff">
		<animateMotion path="M 0 0 V 500 Z" dur="9s" repeatCount="indefinite" />
	</rect>





	<rect x="208" y="60" width="1" height="1" fill="#ffffff">
		<animateMotion path="M 0 0 V 200 Z" dur="9s" repeatCount="indefinite" />
	</rect>

	<rect x="264" y="760" width="1" height="1" fill="#ffffff">
		<animateMotion path="M 0 0 V 400 Z" dur="9s" repeatCount="indefinite" />
	</rect>

	<rect x="296" y="430" width="1" height="1" fill="#ffffff">
		<animateMotion path="M 0 0 V 700 Z" dur="9s" repeatCount="indefinite" />
	</rect>


	<rect x="316" y="820" width="1" height="1" fill="#ffffff">
		<animateMotion path="M 0 0 V 600 Z" dur="9s" repeatCount="indefinite" />
	</rect>

	<rect x="392" y="10" width="1" height="1" fill="#ffffff">
		<animateMotion path="M 0 0 V 500 Z" dur="9s" repeatCount="indefinite" />
	</rect>

	<rect x="412" y="230" width="1" height="1" fill="#ffffff">
		<animateMotion path="M 0 0 V 800 Z" dur="9s" repeatCount="indefinite" />
	</rect>

	<rect x="444" y="600" width="1" height="1" fill="#ffffff">
		<animateMotion path="M 0 0 V 100 Z" dur="9s" repeatCount="indefinite" />
	</rect>




	<rect x="524" y="790" width="1" height="1" fill="#ffffff">
		<animateMotion path="M 0 0 V 600 Z" dur="9s" repeatCount="indefinite" />
	</rect>

	<rect x="588" y="220" width="1" height="1" fill="#ffffff">
		<animateMotion path="M 0 0 V 100 Z" dur="9s" repeatCount="indefinite" />
	</rect>
	<rect x="596" y="440" width="1" height="1" fill="#ffffff">
		<animateMotion path="M 0 0 V 300 Z" dur="9s" repeatCount="indefinite" />
	</rect>



	<rect x="632" y="10" width="1" height="1" fill="#ffffff">
		<animateMotion path="M 0 0 V 260 Z" dur="9s" repeatCount="indefinite" />
	</rect>

	<rect x="692" y="710" width="1" height="1" fill="#ffffff">
		<animateMotion path="M 0 0 V 330 Z" dur="12s" repeatCount="indefinite" />
	</rect>


	<rect x="720" y="550" width="1" height="1" fill="#ffffff">
		<animateMotion path="M 0 0 V 800 Z" dur="15s" repeatCount="indefinite" />
	</rect>

	<rect x="792" y="400" width="1" height="1" fill="#ffffff">
		<animateMotion path="M 0 0 V 600 Z" dur="11s" repeatCount="indefinite" />
	</rect>




	<rect x="836" y="100" width="1" height="1" fill="#ffffff">
		<animateMotion path="M 0 0 V 5500 Z" dur="10s" repeatCount="indefinite" />
	</rect>

	<rect x="864" y="430" width="1" height="1" fill="#ffffff">
		<animateMotion path="M 0 0 V 150 Z" dur="13s" repeatCount="indefinite" />
	</rect>



	<rect x="968" y="890" width="1" height="1" fill="#ffffff">
		<animateMotion path="M 0 0 V 550 Z" dur="11s" repeatCount="indefinite" />
	</rect>

	<rect x="996" y="540" width="1" height="1" fill="#ffffff">
		<animateMotion path="M 0 0 V 300 Z" dur="9s" repeatCount="indefinite" />
	</rect>





	<rect x="1064" y="610" width="1" height="1" fill="#ffffff">
		<animateMotion path="M 0 0 V 600 Z" dur="9s" repeatCount="indefinite" />
	</rect>

	<rect x="1084" y="190" width="1" height="1" fill="#ffffff">
		<animateMotion path="M 0 0 V 900 Z" dur="8s" repeatCount="indefinite" />
	</rect>




	<rect x="1172" y="160" width="1" height="1" fill="#ffffff">
		<animateMotion path="M 0 0 V 200 Z" dur="11s" repeatCount="indefinite" />
	</rect>
	<rect x="1180" y="530" width="1" height="1" fill="#ffffff">
		<animateMotion path="M 0 0 V 650 Z" dur="9s" repeatCount="indefinite" />
	</rect>

	<rect x="1196" y="30" width="1" height="1" fill="#ffffff">
		<animateMotion path="M 0 0 V 600 Z" dur="13s" repeatCount="indefinite" />
	</rect>


	<rect x="1212" y="620" width="1" height="1" fill="#ffffff">
		<animateMotion path="M 0 0 V 400 Z" dur="15s" repeatCount="indefinite" />
	</rect>

	<rect x="1268" y="400" width="1" height="1" fill="#ffffff">
		<animateMotion path="M 0 0 V 600 Z" dur="9s" repeatCount="indefinite" />
	</rect>


	<rect x="1288" y="200" width="1" height="1" fill="#ffffff">
		<animateMotion path="M 0 0 V 300 Z" dur="9s" repeatCount="indefinite" />
	</rect>




	<rect x="1348" y="100" width="1" height="1" fill="#ffffff">
		<animateMotion path="M 0 0 V 600 Z" dur="10s" repeatCount="indefinite" />
	</rect>

	<rect x="1368" y="30" width="1" height="1" fill="#ffffff">
		<animateMotion path="M 0 0 V 100 Z" dur="9s" repeatCount="indefinite" />
	</rect>





	<rect x="1416" y="910" width="1" height="1" fill="#ffffff">
		<animateMotion path="M 0 0 V 500 Z" dur="9s" repeatCount="indefinite" />
	</rect>
	<rect x="1424" y="640" width="1" height="1" fill="#ffffff">
		<animateMotion path="M 0 0 V 440 Z" dur="11s" repeatCount="indefinite" />
	</rect>

	<rect x="1456" y="30" width="1" height="1" fill="#ffffff">
		<animateMotion path="M 0 0 V 900 Z" dur="16s" repeatCount="indefinite" />
	</rect>




	<rect x="1500" y="50" width="1" height="1" fill="#ffffff">
		<animateMotion path="M 0 0 V 300 Z" dur="10s" repeatCount="indefinite" />
	</rect>

	<rect x="1536" y="190" width="1" height="1" fill="#ffffff">
		<animateMotion path="M 0 0 V 100 Z" dur="12s" repeatCount="indefinite" />
	</rect>

	<rect x="1560" y="210" width="1" height="1" fill="#ffffff">
		<animateMotion path="M 0 0 V 550 Z" dur="9s" repeatCount="indefinite" />
	</rect>





	<rect x="1632" y="900" width="1" height="1" fill="#ffffff">
		<animateMotion path="M 0 0 V 550 Z" dur="9s" repeatCount="indefinite" />
	</rect>

	<rect x="1676" y="510" width="1" height="1" fill="#ffffff">
		<animateMotion path="M 0 0 V 600 Z" dur="14s" repeatCount="indefinite" />
	</rect>




	<rect x="1756" y="320" width="1" height="1" fill="#ffffff">
		<animateMotion path="M 0 0 V 500 Z" dur="15s" repeatCount="indefinite" />
	</rect>

	<rect x="1768" y="750" width="1" height="1" fill="#ffffff">
		<animateMotion path="M 0 0 V 600 Z" dur="9s" repeatCount="indefinite" />
	</rect>



	<rect x="1800" y="600" width="1" height="1" fill="#ffffff">
		<animateMotion path="M 0 0 V 600 Z" dur="9s" repeatCount="indefinite" />
	</rect>

	<rect x="1880" y="410" width="1" height="1" fill="#ffffff">
		<animateMotion path="M 0 0 V 100 Z" dur="14s" repeatCount="indefinite" />
	</rect>

	<rect x="1896" y="180" width="1" height="1" fill="#ffffff">
		<animateMotion path="M 0 0 V 300 Z" dur="13s" repeatCount="indefinite" />
	</rect>




	<rect x="1984" y="500" width="1" height="1" fill="#ffffff">
		<animateMotion path="M 0 0 V 600 Z" dur="12s" repeatCount="indefinite" />
	</rect>




	<rect x="2008" y="330" width="1" height="1" fill="#ffffff">
		<animateMotion path="M 0 0 V 600 Z" dur="11s" repeatCount="indefinite" />
	</rect>

	<rect x="2028" y="290" width="1" height="1" fill="#ffffff">
		<animateMotion path="M 0 0 V 600 Z" dur="8s" repeatCount="indefinite" />
	</rect>

	<rect x="2084" y="150" width="1" height="1" fill="#ffffff">
		<animateMotion path="M 0 0 V 600 Z" dur="10s" repeatCount="indefinite" />
	</rect>

	<rect x="2140" y="870" width="1" height="1" fill="#ffffff">
		<animateMotion path="M 0 0 V 300 Z" dur="7s" repeatCount="indefinite" />
	</rect>

	<rect x="2196" y="590" width="1" height="1" fill="#ffffff">
		<animateMotion path="M 0 0 V 200 Z" dur="9s" repeatCount="indefinite" />
	</rect>



	<rect x="2224" y="840" width="1" height="1" fill="#ffffff">
		<animateMotion path="M 0 0 V 900 Z" dur="9s" repeatCount="indefinite" />
	</rect>

	<rect x="2288" y="560" width="1" height="1" fill="#ffffff">
		<animateMotion path="M 0 0 V 800 Z" dur="16s" repeatCount="indefinite" />
	</rect>




	<rect x="2316" y="520" width="1" height="1" fill="#ffffff">
		<animateMotion path="M 0 0 V 600 Z" dur="12s" repeatCount="indefinite" />
	</rect>

	<rect x="2380" y="300" width="1" height="1" fill="#ffffff">
		<animateMotion path="M 0 0 V 100 Z" dur="11s" repeatCount="indefinite" />
	</rect>




	<rect x="2448" y="290" width="1" height="1" fill="#ffffff">
		<animateMotion path="M 0 0 V 500 Z" dur="8s" repeatCount="indefinite" />
	</rect>

	<rect x="2468" y="650" width="1" height="1" fill="#ffffff">
		<animateMotion path="M 0 0 V 200 Z" dur="9s" repeatCount="indefinite" />
	</rect>


	<rect x="2524" y="400" width="1" height="1" fill="#ffffff">
		<animateMotion path="M 0 0 V 670 Z" dur="10s" repeatCount="indefinite" />
	</rect>

	<rect x="2560" y="30" width="1" height="1" fill="#ffffff">
		<animateMotion path="M 0 0 V 630 Z" dur="15s" repeatCount="indefinite" />
	</rect>


</svg>
