<?xml version="1.0" encoding="utf-8"?>
<!-- Generator: Adobe Illustrator 18.1.1, SVG Export Plug-In . SVG Version: 6.00 Build 0)  -->
<svg version="1.1" id="Layer_1" xmlns="http://www.w3.org/2000/svg" xmlns:xlink="http://www.w3.org/1999/xlink" x="0px" y="0px"
	 viewBox="0 0 2560 1440" enable-background="new 0 0 2560 1440" xml:space="preserve">


	<rect y="16" x="20" width="1" height="1" fill="#ffffff">
		<animateMotion path="M 0 0 H 200 Z" dur="9s" repeatCount="indefinite" />
	</rect>

	<rect y="96" x="280" width="1" height="1" fill="#ffffff">
		<animateMotion path="M 0 0 H 1000 Z" dur="9s" repeatCount="indefinite" />
	</rect>
	

	<rect y="124" x="100" width="1" height="1" fill="#ffffff">
		<animateMotion path="M 0 0 H 900 Z" dur="9s" repeatCount="indefinite" />
	</rect>
	<rect y="180" x="900" width="1" height="1" fill="#ffffff">
		<animateMotion path="M 0 0 H 500 Z" dur="9s" repeatCount="indefinite" />
	</rect>





	<rect y="208" x="60" width="1" height="1" fill="#ffffff">
		<animateMotion path="M 0 0 H 200 Z" dur="9s" repeatCount="indefinite" />
	</rect>

	<rect y="264" x="760" width="1" height="1" fill="#ffffff">
		<animateMotion path="M 0 0 H 400 Z" dur="9s" repeatCount="indefinite" />
	</rect>

	<rect y="296" x="430" width="1" height="1" fill="#ffffff">
		<animateMotion path="M 0 0 H 700 Z" dur="9s" repeatCount="indefinite" />
	</rect>


	<rect y="316" x="820" width="1" height="1" fill="#ffffff">
		<animateMotion path="M 0 0 H 600 Z" dur="9s" repeatCount="indefinite" />
	</rect>

	<rect y="392" x="10" width="1" height="1" fill="#ffffff">
		<animateMotion path="M 0 0 H 500 Z" dur="9s" repeatCount="indefinite" />
	</rect>

	<rect y="412" x="230" width="1" height="1" fill="#ffffff">
		<animateMotion path="M 0 0 H 800 Z" dur="9s" repeatCount="indefinite" />
	</rect>

	<rect y="444" x="600" width="1" height="1" fill="#ffffff">
		<animateMotion path="M 0 0 H 100 Z" dur="9s" repeatCount="indefinite" />
	</rect>




	<rect y="524" x="790" width="1" height="1" fill="#ffffff">
		<animateMotion path="M 0 0 H 600 Z" dur="9s" repeatCount="indefinite" />
	</rect>

	<rect y="588" x="220" width="1" height="1" fill="#ffffff">
		<animateMotion path="M 0 0 H 100 Z" dur="9s" repeatCount="indefinite" />
	</rect>
	<rect y="596" x="440" width="1" height="1" fill="#ffffff">
		<animateMotion path="M 0 0 H 300 Z" dur="9s" repeatCount="indefinite" />
	</rect>



	<rect y="632" x="10" width="1" height="1" fill="#ffffff">
		<animateMotion path="M 0 0 H 260 Z" dur="9s" repeatCount="indefinite" />
	</rect>

	<rect y="692" x="710" width="1" height="1" fill="#ffffff">
		<animateMotion path="M 0 0 H 330 Z" dur="12s" repeatCount="indefinite" />
	</rect>


	<rect y="720" x="550" width="1" height="1" fill="#ffffff">
		<animateMotion path="M 0 0 H 800 Z" dur="15s" repeatCount="indefinite" />
	</rect>

	<rect y="792" x="400" width="1" height="1" fill="#ffffff">
		<animateMotion path="M 0 0 H 600 Z" dur="11s" repeatCount="indefinite" />
	</rect>




	<rect y="836" x="100" width="1" height="1" fill="#ffffff">
		<animateMotion path="M 0 0 H 5500 Z" dur="10s" repeatCount="indefinite" />
	</rect>

	<rect y="864" x="430" width="1" height="1" fill="#ffffff">
		<animateMotion path="M 0 0 H 150 Z" dur="13s" repeatCount="indefinite" />
	</rect>



	<rect y="968" x="890" width="1" height="1" fill="#ffffff">
		<animateMotion path="M 0 0 H 550 Z" dur="11s" repeatCount="indefinite" />
	</rect>

	<rect y="996" x="540" width="1" height="1" fill="#ffffff">
		<animateMotion path="M 0 0 H 300 Z" dur="9s" repeatCount="indefinite" />
	</rect>





	<rect y="1064" x="610" width="1" height="1" fill="#ffffff">
		<animateMotion path="M 0 0 H 600 Z" dur="9s" repeatCount="indefinite" />
	</rect>

	<rect y="1084" x="190" width="1" height="1" fill="#ffffff">
		<animateMotion path="M 0 0 H 900 Z" dur="8s" repeatCount="indefinite" />
	</rect>




	<rect y="1172" x="160" width="1" height="1" fill="#ffffff">
		<animateMotion path="M 0 0 H 200 Z" dur="11s" repeatCount="indefinite" />
	</rect>
	<rect y="1180" x="530" width="1" height="1" fill="#ffffff">
		<animateMotion path="M 0 0 H 650 Z" dur="9s" repeatCount="indefinite" />
	</rect>

	<rect y="1196" x="30" width="1" height="1" fill="#ffffff">
		<animateMotion path="M 0 0 H 600 Z" dur="13s" repeatCount="indefinite" />
	</rect>


	<rect y="1212" x="620" width="1" height="1" fill="#ffffff">
		<animateMotion path="M 0 0 H 400 Z" dur="15s" repeatCount="indefinite" />
	</rect>

	<rect y="1268" x="400" width="1" height="1" fill="#ffffff">
		<animateMotion path="M 0 0 H 600 Z" dur="9s" repeatCount="indefinite" />
	</rect>


	<rect y="1288" x="200" width="1" height="1" fill="#ffffff">
		<animateMotion path="M 0 0 H 300 Z" dur="9s" repeatCount="indefinite" />
	</rect>




	<rect y="1348" x="100" width="1" height="1" fill="#ffffff">
		<animateMotion path="M 0 0 H 600 Z" dur="10s" repeatCount="indefinite" />
	</rect>

	<rect y="1368" x="30" width="1" height="1" fill="#ffffff">
		<animateMotion path="M 0 0 H 100 Z" dur="9s" repeatCount="indefinite" />
	</rect>





	<rect y="1416" x="910" width="1" height="1" fill="#ffffff">
		<animateMotion path="M 0 0 H 500 Z" dur="9s" repeatCount="indefinite" />
	</rect>
	<rect y="1424" x="640" width="1" height="1" fill="#ffffff">
		<animateMotion path="M 0 0 H 440 Z" dur="11s" repeatCount="indefinite" />
	</rect>

	<rect y="1456" x="30" width="1" height="1" fill="#ffffff">
		<animateMotion path="M 0 0 H 900 Z" dur="16s" repeatCount="indefinite" />
	</rect>




	<rect y="1500" x="50" width="1" height="1" fill="#ffffff">
		<animateMotion path="M 0 0 H 300 Z" dur="10s" repeatCount="indefinite" />
	</rect>

	<rect y="1536" x="190" width="1" height="1" fill="#ffffff">
		<animateMotion path="M 0 0 H 100 Z" dur="12s" repeatCount="indefinite" />
	</rect>

	<rect y="1560" x="210" width="1" height="1" fill="#ffffff">
		<animateMotion path="M 0 0 H 550 Z" dur="9s" repeatCount="indefinite" />
	</rect>





	<rect y="1632" x="900" width="1" height="1" fill="#ffffff">
		<animateMotion path="M 0 0 H 550 Z" dur="9s" repeatCount="indefinite" />
	</rect>

	<rect y="1676" x="510" width="1" height="1" fill="#ffffff">
		<animateMotion path="M 0 0 H 600 Z" dur="14s" repeatCount="indefinite" />
	</rect>




	<rect y="1756" x="320" width="1" height="1" fill="#ffffff">
		<animateMotion path="M 0 0 H 500 Z" dur="15s" repeatCount="indefinite" />
	</rect>

	<rect y="1768" x="750" width="1" height="1" fill="#ffffff">
		<animateMotion path="M 0 0 H 600 Z" dur="9s" repeatCount="indefinite" />
	</rect>



	<rect y="1800" x="600" width="1" height="1" fill="#ffffff">
		<animateMotion path="M 0 0 H 600 Z" dur="9s" repeatCount="indefinite" />
	</rect>

	<rect y="1880" x="410" width="1" height="1" fill="#ffffff">
		<animateMotion path="M 0 0 H 100 Z" dur="14s" repeatCount="indefinite" />
	</rect>

	<rect y="1896" x="180" width="1" height="1" fill="#ffffff">
		<animateMotion path="M 0 0 H 300 Z" dur="13s" repeatCount="indefinite" />
	</rect>




	<rect y="1984" x="500" width="1" height="1" fill="#ffffff">
		<animateMotion path="M 0 0 H 600 Z" dur="12s" repeatCount="indefinite" />
	</rect>




	<rect y="2008" x="330" width="1" height="1" fill="#ffffff">
		<animateMotion path="M 0 0 H 600 Z" dur="11s" repeatCount="indefinite" />
	</rect>

	<rect y="2028" x="290" width="1" height="1" fill="#ffffff">
		<animateMotion path="M 0 0 H 600 Z" dur="8s" repeatCount="indefinite" />
	</rect>

	<rect y="2084" x="150" width="1" height="1" fill="#ffffff">
		<animateMotion path="M 0 0 H 600 Z" dur="10s" repeatCount="indefinite" />
	</rect>

	<rect y="2140" x="870" width="1" height="1" fill="#ffffff">
		<animateMotion path="M 0 0 H 300 Z" dur="7s" repeatCount="indefinite" />
	</rect>

	<rect y="2196" x="590" width="1" height="1" fill="#ffffff">
		<animateMotion path="M 0 0 H 200 Z" dur="9s" repeatCount="indefinite" />
	</rect>



	<rect y="2224" x="840" width="1" height="1" fill="#ffffff">
		<animateMotion path="M 0 0 H 900 Z" dur="9s" repeatCount="indefinite" />
	</rect>

	<rect y="2288" x="560" width="1" height="1" fill="#ffffff">
		<animateMotion path="M 0 0 H 800 Z" dur="16s" repeatCount="indefinite" />
	</rect>




	<rect y="2316" x="520" width="1" height="1" fill="#ffffff">
		<animateMotion path="M 0 0 H 600 Z" dur="12s" repeatCount="indefinite" />
	</rect>

	<rect y="2380" x="300" width="1" height="1" fill="#ffffff">
		<animateMotion path="M 0 0 H 100 Z" dur="11s" repeatCount="indefinite" />
	</rect>




	<rect y="2448" x="290" width="1" height="1" fill="#ffffff">
		<animateMotion path="M 0 0 H 500 Z" dur="8s" repeatCount="indefinite" />
	</rect>

	<rect y="2468" x="650" width="1" height="1" fill="#ffffff">
		<animateMotion path="M 0 0 H 200 Z" dur="9s" repeatCount="indefinite" />
	</rect>


	<rect y="2524" x="400" width="1" height="1" fill="#ffffff">
		<animateMotion path="M 0 0 H 670 Z" dur="10s" repeatCount="indefinite" />
	</rect>

	<rect y="2560" x="30" width="1" height="1" fill="#ffffff">
		<animateMotion path="M 0 0 H 630 Z" dur="15s" repeatCount="indefinite" />
	</rect>


</svg>
