<?xml version="1.0" encoding="utf-8"?>
<!-- Generator: Adobe Illustrator 18.1.1, SVG Export Plug-In . SVG Version: 6.00 Build 0)  -->
<svg version="1.1" id="Layer_1" xmlns="http://www.w3.org/2000/svg" xmlns:xlink="http://www.w3.org/1999/xlink" x="0px" y="0px"
	 viewBox="0 0 2560 1440" enable-background="new 0 0 2560 1440" xml:space="preserve">



	<rect y="16" x="0" height="1" width="2560" fill="#004266" />

	<rect y="96" x="0" height="1" width="2560" fill="#004266" />
	

	<rect y="124" x="0" height="1" width="2560" fill="#004266" />

	<rect y="180" x="0" height="1" width="2560" fill="#004266" />





	<rect y="208" x="0" height="1" width="2560" fill="#004266" />

	<rect y="264" x="0" height="1" width="2560" fill="#004266" />

	<rect y="296" x="0" height="1" width="2560" fill="#004266" />


	<rect y="316" x="0" height="1" width="2560" fill="#004266" />

	<rect y="392" x="0" height="1" width="2560" fill="#004266" />

	<rect y="412" x="0" height="1" width="2560" fill="#004266" />

	<rect y="444" x="0" height="1" width="2560" fill="#004266" />




	<rect y="524" x="0" height="1" width="2560" fill="#004266" />

	<rect y="588" x="0" height="1" width="2560" fill="#004266" />
	<rect y="596" x="0" height="1" width="2560" fill="#004266" />



	<rect y="632" x="0" height="1" width="2560" fill="#004266" />

	<rect y="692" x="0" height="1" width="2560" fill="#004266" />


	<rect y="720" x="0" height="1" width="2560" fill="#004266" />

	<rect y="792" x="0" height="1" width="2560" fill="#004266" />




	<rect y="836" x="0" height="1" width="2560" fill="#004266" />

	<rect y="864" x="0" height="1" width="2560" fill="#004266" />



	<rect y="968" x="0" height="1" width="2560" fill="#004266" />

	<rect y="996" x="0" height="1" width="2560" fill="#004266" />





	<rect y="1064" x="0" height="1" width="2560" fill="#004266" />

	<rect y="1084" x="0" height="1" width="2560" fill="#004266" />




	<rect y="1172" x="0" height="1" width="2560" fill="#004266" />
	<rect y="1180" x="0" height="1" width="2560" fill="#004266" />

	<rect y="1196" x="0" height="1" width="2560" fill="#004266" />


	<rect y="1212" x="0" height="1" width="2560" fill="#004266" />

	<rect y="1268" x="0" height="1" width="2560" fill="#004266" />


	<rect y="1288" x="0" height="1" width="2560" fill="#004266" />




	<rect y="1348" x="0" height="1" width="2560" fill="#004266" />

	<rect y="1368" x="0" height="1" width="2560" fill="#004266" />





	<rect y="1416" x="0" height="1" width="2560" fill="#004266" />
	<rect y="1424" x="0" height="1" width="2560" fill="#004266" />

	<rect y="1456" x="0" height="1" width="2560" fill="#004266" />




	<rect y="1500" x="0" height="1" width="2560" fill="#004266" />

	<rect y="1536" x="0" height="1" width="2560" fill="#004266" />

	<rect y="1560" x="0" height="1" width="2560" fill="#004266" />





	<rect y="1632" x="0" height="1" width="2560" fill="#004266" />

	<rect y="1676" x="0" height="1" width="2560" fill="#004266" />




	<rect y="1756" x="0" height="1" width="2560" fill="#004266" />

	<rect y="1768" x="0" height="1" width="2560" fill="#004266" />



	<rect y="1800" x="0" height="1" width="2560" fill="#004266" />

	<rect y="1880" x="0" height="1" width="2560" fill="#004266" />

	<rect y="1896" x="0" height="1" width="2560" fill="#004266" />




	<rect y="1984" x="0" height="1" width="2560" fill="#004266" />




	<rect y="2008" x="0" height="1" width="2560" fill="#004266" />

	<rect y="2028" x="0" height="1" width="2560" fill="#004266" />

	<rect y="2084" x="0" height="1" width="2560" fill="#004266" />

	<rect y="2140" x="0" height="1" width="2560" fill="#004266" />

	<rect y="2196" x="0" height="1" width="2560" fill="#004266" />



	<rect y="2224" x="0" height="1" width="2560" fill="#004266" />

	<rect y="2288" x="0" height="1" width="2560" fill="#004266" />




	<rect y="2316" x="0" height="1" width="2560" fill="#004266" />

	<rect y="2380" x="0" height="1" width="2560" fill="#004266" />




	<rect y="2448" x="0" height="1" width="2560" fill="#004266" />

	<rect y="2468" x="0" height="1" width="2560" fill="#004266" />


	<rect y="2524" x="0" height="1" width="2560" fill="#004266" />

	<rect y="2560" x="0" height="1" width="2560" fill="#004266" />


</svg>
