<?xml version="1.0" encoding="utf-8"?>
<!-- Generator: Adobe Illustrator 18.1.1, SVG Export Plug-In . SVG Version: 6.00 Build 0)  -->
<svg version="1.1" id="Layer_1" xmlns="http://www.w3.org/2000/svg" xmlns:xlink="http://www.w3.org/1999/xlink" x="0px" y="0px"
	 viewBox="0 0 2560 1440" enable-background="new 0 0 2560 1440" xml:space="preserve">


	<rect x="0" y="0" width="1" height="1600" fill="#004266" />

	<rect x="16" y="0" width="1" height="1600" fill="#004266" />

	<rect x="96" y="0" width="1" height="1600" fill="#004266" />
	

	<rect x="124" y="0" width="1" height="1600" fill="#004266" />

	<rect x="180" y="0" width="1" height="1600" fill="#004266" />





	<rect x="208" y="0" width="1" height="1600" fill="#004266" />

	<rect x="264" y="0" width="1" height="1600" fill="#004266" />

	<rect x="296" y="0" width="1" height="1600" fill="#004266" />


	<rect x="316" y="0" width="1" height="1600" fill="#004266" />

	<rect x="392" y="0" width="1" height="1600" fill="#004266" />

	<rect x="412" y="0" width="1" height="1600" fill="#004266" />

	<rect x="444" y="0" width="1" height="1600" fill="#004266" />




	<rect x="524" y="0" width="1" height="1600" fill="#004266" />

	<rect x="588" y="0" width="1" height="1600" fill="#004266" />
	<rect x="596" y="0" width="1" height="1600" fill="#004266" />



	<rect x="632" y="0" width="1" height="1600" fill="#004266" />

	<rect x="692" y="0" width="1" height="1600" fill="#004266" />


	<rect x="720" y="0" width="1" height="1600" fill="#004266" />

	<rect x="792" y="0" width="1" height="1600" fill="#004266" />




	<rect x="836" y="0" width="1" height="1600" fill="#004266" />

	<rect x="864" y="0" width="1" height="1600" fill="#004266" />



	<rect x="968" y="0" width="1" height="1600" fill="#004266" />

	<rect x="996" y="0" width="1" height="1600" fill="#004266" />





	<rect x="1064" y="0" width="1" height="1600" fill="#004266" />

	<rect x="1084" y="0" width="1" height="1600" fill="#004266" />




	<rect x="1172" y="0" width="1" height="1600" fill="#004266" />
	<rect x="1180" y="0" width="1" height="1600" fill="#004266" />

	<rect x="1196" y="0" width="1" height="1600" fill="#004266" />


	<rect x="1212" y="0" width="1" height="1600" fill="#004266" />

	<rect x="1268" y="0" width="1" height="1600" fill="#004266" />


	<rect x="1288" y="0" width="1" height="1600" fill="#004266" />




	<rect x="1348" y="0" width="1" height="1600" fill="#004266" />

	<rect x="1368" y="0" width="1" height="1600" fill="#004266" />





	<rect x="1416" y="0" width="1" height="1600" fill="#004266" />
	<rect x="1424" y="0" width="1" height="1600" fill="#004266" />

	<rect x="1456" y="0" width="1" height="1600" fill="#004266" />




	<rect x="1500" y="0" width="1" height="1600" fill="#004266" />

	<rect x="1536" y="0" width="1" height="1600" fill="#004266" />

	<rect x="1560" y="0" width="1" height="1600" fill="#004266" />





	<rect x="1632" y="0" width="1" height="1600" fill="#004266" />

	<rect x="1676" y="0" width="1" height="1600" fill="#004266" />




	<rect x="1756" y="0" width="1" height="1600" fill="#004266" />

	<rect x="1768" y="0" width="1" height="1600" fill="#004266" />



	<rect x="1800" y="0" width="1" height="1600" fill="#004266" />

	<rect x="1880" y="0" width="1" height="1600" fill="#004266" />

	<rect x="1896" y="0" width="1" height="1600" fill="#004266" />




	<rect x="1984" y="0" width="1" height="1600" fill="#004266" />




	<rect x="2008" y="0" width="1" height="1600" fill="#004266" />

	<rect x="2028" y="0" width="1" height="1600" fill="#004266" />

	<rect x="2084" y="0" width="1" height="1600" fill="#004266" />

	<rect x="2140" y="0" width="1" height="1600" fill="#004266" />

	<rect x="2196" y="0" width="1" height="1600" fill="#004266" />



	<rect x="2224" y="0" width="1" height="1600" fill="#004266" />

	<rect x="2288" y="0" width="1" height="1600" fill="#004266" />




	<rect x="2316" y="0" width="1" height="1600" fill="#004266" />

	<rect x="2380" y="0" width="1" height="1600" fill="#004266" />




	<rect x="2448" y="0" width="1" height="1600" fill="#004266" />

	<rect x="2468" y="0" width="1" height="1600" fill="#004266" />


	<rect x="2524" y="0" width="1" height="1600" fill="#004266" />

	<rect x="2560" y="0" width="1" height="1600" fill="#004266" />


</svg>
